# xmcd
#
# Track frame offsets: 
#        150
#        16886
#        33300
#        51266
#        65977
#        82144
#        102451
#        120295
#        137176
#        155081
#        172254
#        186791
#        199052
#        215734
#        233131
#
# Disc length: 3339 seconds
#
# Revision: 1
# Processed by: cddbd v1.5.2PL0 Copyright (c) Steve Scherf et al.
# Submitted via: ExactAudioCopy v0.99pb3
#
DISCID=e20d090f
DTITLE=Various Artist - Latina Fever Vol.6 [CD2: Merenge\\Bachata)
DYEAR=2011
DGENRE=Merengue
TTITLE0=Prince Royce - Rechazame
TTITLE1=Monchy Y Alexandra - No Es Una Novela
TTITLE2=Zache - En El Banquito Aquel
TTITLE3=J Aponte - Abusedora
TTITLE4=Daniel Santacruz - Radio Rompecorazones
TTITLE5=Raulin Rodriguez - Guantanamera
TTITLE6=Baby Lores - Casate Conmigo
TTITLE7=Magic Juan - Cosita Linda
TTITLE8=Grupo Rush - Loco Por It
TTITLE9=La Ritmica - Que Calor
TTITLE10=Raul Acosta Y Oro Solido - Mami Tu Ta' Bien
TTITLE11=Latinspain - Pegate
TTITLE12=Guille El Invencible - Pa'Que De Mi Te Enamores
TTITLE13=Domenic Marte - Yo Me Equivoco
TTITLE14=Prophex ft Dice - Ladrona De Mi Corazon
EXTD=YEAR: 2011
EXTT0=
EXTT1=
EXTT2=
EXTT3=
EXTT4=
EXTT5=
EXTT6=
EXTT7=
EXTT8=
EXTT9=
EXTT10=
EXTT11=
EXTT12=
EXTT13=
EXTT14=
PLAYORDER=
